<?xml version="1.0" standalone="no"?>
<!DOCTYPE svg PUBLIC "-//W3C//DTD SVG 20010904//EN"
 "http://www.w3.org/TR/2001/REC-SVG-20010904/DTD/svg10.dtd">
<svg version="1.0" xmlns="http://www.w3.org/2000/svg"
 width="300.000000pt" height="300.000000pt" viewBox="0 0 300.000000 300.000000"
 preserveAspectRatio="xMidYMid meet">
<metadata>
Created by potrace 1.14, written by Peter Selinger 2001-2017
</metadata>
<g transform="translate(0.000000,300.000000) scale(0.100000,-0.100000)"
fill="#000000" stroke="none">
<path d="M290 2993 c0 -3 16 -35 35 -70 19 -35 35 -68 35 -73 0 -5 -10 -18
-22 -30 -12 -11 -19 -22 -17 -24 6 -6 169 77 169 86 0 4 -15 8 -32 10 -28 3
-37 11 -61 56 -27 49 -30 52 -68 52 -21 0 -39 -3 -39 -7z"/>
<path d="M535 2973 c-3 -13 -7 -34 -10 -48 -3 -14 -3 -25 0 -25 10 0 185 90
185 96 0 3 -38 4 -85 2 -80 -3 -86 -4 -90 -25z"/>
<path d="M2285 2975 c-3 -14 -7 -36 -10 -50 -3 -14 -3 -30 0 -34 2 -5 53 17
112 48 l108 56 -47 3 c-32 2 -59 -3 -87 -17 -51 -26 -64 -27 -56 -1 4 11 2 20
-4 20 -6 0 -13 -11 -16 -25z"/>
<path d="M2800 2995 c0 -3 21 -31 47 -63 26 -31 69 -91 96 -132 26 -41 50 -76
51 -78 2 -1 3 15 2 36 0 26 -5 38 -12 35 -11 -4 -104 118 -104 137 0 11 63 60
76 60 5 0 17 -12 26 -27 19 -30 25 -15 8 18 -15 27 -47 24 -93 -8 l-39 -27
-20 27 c-17 24 -38 36 -38 22z"/>
<path d="M1906 2840 c-25 -43 -46 -84 -46 -89 0 -15 61 -44 70 -34 10 12 60
156 60 174 0 14 -19 29 -35 29 -2 0 -24 -36 -49 -80z"/>
<path d="M802 2890 c0 -14 2 -19 5 -12 2 6 2 18 0 25 -3 6 -5 1 -5 -13z"/>
<path d="M867 2896 c-6 -15 1 -26 15 -26 4 0 8 9 8 20 0 23 -15 27 -23 6z"/>
<path d="M730 2875 c0 -31 11 -65 21 -65 5 0 6 15 2 33 -7 38 -23 60 -23 32z"/>
<path d="M1006 2862 c-5 -18 -5 -36 -2 -39 7 -7 19 43 13 59 -2 7 -7 -2 -11
-20z"/>
<path d="M660 2856 c0 -8 5 -18 10 -21 6 -3 10 1 10 9 0 8 -4 18 -10 21 -5 3
-10 -1 -10 -9z"/>
<path d="M1077 2853 c-4 -3 -7 -11 -7 -17 0 -6 5 -5 12 2 6 6 9 14 7 17 -3 3
-9 2 -12 -2z"/>
<path d="M590 2821 c13 -25 33 -28 28 -4 -2 10 -11 19 -21 21 -16 3 -17 1 -7
-17z"/>
<path d="M1205 2830 c-436 -46 -831 -290 -1080 -665 -81 -122 -147 -260 -116
-241 5 3 25 -1 45 -9 l36 -15 -16 -38 c-9 -20 -20 -49 -26 -64 -7 -19 -17 -28
-31 -28 -19 0 -19 -1 -4 -13 16 -11 16 -16 2 -62 -8 -28 -15 -61 -14 -75 0
-14 11 11 23 55 130 451 428 795 836 968 258 109 572 126 844 46 367 -109 654
-405 747 -768 34 -136 35 -327 2 -458 -4 -18 -1 -23 13 -23 12 0 15 3 8 8 -15
9 -5 72 12 79 32 12 43 -4 32 -46 -6 -23 -15 -41 -20 -41 -5 0 -6 -5 -3 -10 4
-6 1 -26 -5 -46 -17 -50 -46 -43 -43 11 l2 40 -18 -51 c-10 -27 -26 -64 -35
-82 -9 -17 -16 -35 -16 -39 1 -4 12 13 26 40 26 49 30 52 53 38 20 -13 -4 -71
-30 -71 -20 0 -25 -15 -9 -25 13 -8 -20 -65 -37 -65 -20 0 -26 25 -13 49 23
44 1 18 -41 -46 -55 -86 -144 -176 -234 -236 -38 -26 -66 -47 -62 -47 13 0
126 79 169 118 32 29 41 32 53 22 14 -12 13 -16 -12 -42 -15 -16 -33 -26 -41
-23 -7 2 -10 0 -7 -5 9 -15 -37 -50 -57 -44 -12 4 -18 0 -18 -10 0 -9 -12 -23
-26 -32 -22 -15 -27 -15 -36 -3 -8 11 -9 11 -5 -3 4 -11 -4 -20 -26 -28 -18
-7 -46 -19 -63 -27 -17 -9 -37 -14 -45 -11 -7 2 -20 -1 -27 -9 -17 -17 -59
-17 -65 0 -3 7 -6 4 -6 -7 -1 -16 -7 -18 -41 -13 -22 3 -43 1 -46 -4 -3 -5
-34 -9 -70 -9 -56 0 -64 2 -64 19 0 11 6 22 13 24 6 3 -6 5 -28 5 -22 0 -30
-3 -17 -5 12 -2 22 -11 22 -20 0 -13 -9 -15 -57 -10 -46 5 -53 4 -33 -4 48
-21 239 -23 331 -5 369 75 652 384 710 776 16 109 6 313 -19 405 -59 214 -156
381 -311 533 -252 247 -644 380 -1006 342z m106 -32 l12 -23 10 23 c9 19 18
22 64 22 l54 0 -3 -32 -3 -33 -121 -3 c-119 -3 -122 -2 -128 20 -12 45 -8 48
49 48 46 0 56 -3 66 -22z m219 12 c39 0 54 -14 46 -44 -7 -28 -24 -32 -85 -20
-28 6 -31 10 -31 41 0 32 2 35 23 29 12 -3 33 -6 47 -6z m-348 -30 c6 -37 5
-38 -66 -46 -52 -6 -56 -5 -57 15 -1 11 -2 27 -3 33 -1 13 38 25 90 27 28 1
32 -3 36 -29z m486 0 c38 -10 42 -14 36 -33 -11 -37 -20 -40 -74 -26 -44 11
-50 16 -46 34 3 11 6 26 6 33 0 8 7 11 18 8 9 -3 36 -10 60 -16z m-624 -6 c16
-41 7 -53 -50 -70 -30 -9 -57 -14 -60 -12 -2 3 -7 18 -10 36 -6 30 -5 31 42
46 63 19 71 19 78 0z m740 -30 c40 -14 46 -19 40 -38 -11 -36 -20 -39 -73 -21
-28 9 -51 18 -51 20 0 14 21 55 28 55 5 0 30 -7 56 -16z m-870 -16 c3 -13 6
-28 6 -34 0 -11 -108 -61 -113 -53 -8 11 -27 62 -25 64 6 6 103 44 114 44 7 1
14 -9 18 -21z m976 -28 c31 -16 40 -26 40 -46 0 -22 2 -24 15 -14 17 14 51 7
83 -18 23 -18 23 -19 5 -41 l-18 -22 -98 51 c-53 28 -97 53 -97 55 0 11 20 55
25 55 3 0 24 -9 45 -20z m-1101 -60 c0 -8 -21 -26 -47 -38 -26 -13 -75 -42
-110 -64 -65 -43 -78 -42 -102 3 -8 14 -1 23 40 49 47 30 52 31 69 16 26 -23
34 -20 29 13 -4 27 0 32 46 54 l51 25 12 -21 c7 -12 12 -29 12 -37z m1338 -93
c20 -18 20 -20 5 -38 -22 -25 -31 -24 -71 11 -34 29 -34 29 -17 55 19 29 14
31 83 -28z m-1592 -34 l18 -27 -44 -37 c-24 -21 -49 -39 -55 -39 -6 0 -21 11
-34 25 l-23 24 33 28 c75 64 80 65 105 26z m1665 -28 l34 -35 -22 -22 -22 -23
-37 37 c-36 36 -37 38 -18 58 10 11 21 20 25 20 3 0 21 -16 40 -35z m-1783
-64 l22 -28 -47 -46 -47 -47 -30 25 -30 24 50 50 c27 28 52 51 55 50 3 0 15
-13 27 -28z m1897 -65 c49 -65 56 -78 46 -95 -9 -18 -8 -21 13 -21 17 0 28
-10 41 -37 17 -35 17 -38 0 -50 -10 -7 -20 -13 -23 -13 -3 0 -30 39 -60 86
-51 82 -53 86 -36 105 19 20 7 27 -13 7 -10 -10 -20 -4 -50 25 l-37 38 24 20
c12 10 26 17 30 14 4 -2 33 -38 65 -79z m-2003 -42 l28 -27 -42 -51 c-23 -28
-43 -53 -44 -55 -4 -7 -64 41 -61 50 4 12 82 109 87 109 3 0 17 -12 32 -26z
m-101 -121 c14 -9 27 -18 29 -19 2 -2 -14 -31 -36 -66 -22 -35 -55 -91 -73
-125 -17 -35 -39 -63 -47 -63 -12 0 -49 15 -61 25 -2 2 9 28 25 59 25 51 30
56 60 56 l32 0 -16 28 c-16 28 -15 30 16 75 17 26 35 47 39 47 4 0 19 -8 32
-17z m2245 -73 c20 -38 19 -57 -2 -70 -16 -9 -15 -10 6 -8 20 3 26 -4 38 -36
14 -42 10 -52 -21 -58 -15 -2 -23 9 -40 62 -12 36 -28 76 -35 89 -12 21 -11
26 5 38 26 19 32 17 49 -17z m65 -194 c0 -7 3 -27 6 -43 5 -26 2 -31 -17 -36
-13 -3 -25 -4 -27 -2 -8 7 -21 79 -16 87 9 14 54 9 54 -6z m18 -126 c3 -24 -2
-38 -15 -48 -17 -12 -17 -14 0 -23 12 -7 17 -22 17 -49 0 -36 -3 -40 -25 -40
-24 0 -25 2 -25 73 0 39 -3 82 -6 94 -4 15 -1 22 13 26 30 8 38 2 41 -33z m2
-184 c0 -7 -3 -28 -6 -45 -5 -24 -12 -31 -30 -31 -25 0 -28 8 -18 59 5 24 12
31 30 31 14 0 24 -6 24 -14z m-170 -441 c12 -14 8 -27 -18 -57 -11 -14 -19
-15 -36 -7 -20 10 -20 10 -2 -5 19 -16 19 -17 -9 -46 -25 -26 -31 -28 -43 -16
-12 12 -7 23 34 80 27 36 52 65 55 66 4 0 12 -7 19 -15z"/>
<path d="M530 2792 c0 -12 19 -26 26 -19 2 2 -2 10 -11 17 -9 8 -15 8 -15 2z"/>
<path d="M860 2784 c0 -8 5 -12 10 -9 6 3 10 10 10 16 0 5 -4 9 -10 9 -5 0
-10 -7 -10 -16z"/>
<path d="M667 2754 c-10 -11 -8 -34 3 -34 6 0 10 7 10 15 0 8 5 15 10 15 6 0
10 -9 10 -20 0 -11 5 -20 11 -20 6 0 9 10 7 23 -3 22 -36 36 -51 21z"/>
<path d="M470 2742 c0 -14 56 -63 63 -55 4 3 -5 19 -20 35 -27 28 -43 35 -43
20z"/>
<path d="M614 2709 c-3 -6 0 -15 7 -20 23 -14 30 -10 19 11 -12 23 -16 24 -26
9z"/>
<path d="M2794 2709 c-37 -11 -62 -36 -73 -77 -11 -36 9 -72 40 -72 24 0 24 5
-1 30 -53 53 13 126 81 90 25 -14 49 -62 49 -99 0 -22 -8 -36 -30 -53 -29 -21
-40 -48 -20 -48 6 0 10 4 10 10 0 20 49 42 79 35 56 -12 84 -128 39 -159 -37
-26 -83 -20 -112 15 -25 29 -26 30 -26 7 1 -64 78 -86 145 -42 24 15 25 21 25
104 0 95 -2 98 -65 106 -11 1 -21 3 -22 3 -1 1 2 13 8 27 11 32 -3 84 -29 106
-24 21 -61 27 -98 17z"/>
<path d="M422 2688 c5 -15 28 -23 28 -10 0 5 -7 13 -16 16 -10 4 -14 1 -12 -6z"/>
<path d="M1251 2656 c-22 -23 -22 -24 -4 -20 13 4 22 0 26 -10 3 -8 29 -50 57
-92 28 -42 49 -83 46 -90 -7 -19 1 -17 36 8 29 20 30 22 11 29 -11 4 -47 50
-79 103 -33 53 -62 96 -65 96 -3 0 -16 -11 -28 -24z"/>
<path d="M376 2631 c-7 -10 22 -37 30 -28 9 8 -3 37 -15 37 -5 0 -12 -4 -15
-9z"/>
<path d="M1776 2575 c-29 -27 -35 -75 -11 -95 17 -14 47 -10 53 8 2 7 -2 10
-11 6 -17 -6 -47 21 -47 41 0 8 11 22 24 30 20 13 29 14 46 5 32 -17 41 -53
34 -146 -4 -46 -4 -84 0 -84 3 0 24 13 47 29 22 17 45 31 51 33 6 2 8 13 4 26
-8 24 -26 30 -26 8 0 -12 -60 -59 -67 -52 -2 1 4 35 11 76 16 80 10 112 -23
129 -31 17 -56 13 -85 -14z"/>
<path d="M345 2560 c-4 -6 -4 -10 -1 -10 2 0 11 -3 20 -6 9 -3 16 -2 16 4 0
14 -28 23 -35 12z"/>
<path d="M778 2544 c-15 -8 -32 -23 -38 -34 -15 -27 -12 -76 4 -89 19 -16 68
-10 74 8 3 10 -1 12 -15 9 -30 -8 -53 10 -53 40 0 35 17 52 50 52 58 0 75 -50
63 -187 -5 -51 -5 -93 -1 -93 4 0 36 20 72 45 44 31 63 51 59 60 -7 20 -6 20
-63 -21 -28 -20 -53 -35 -55 -32 -3 2 3 43 12 90 19 98 10 137 -33 157 -32 14
-43 14 -76 -5z"/>
<path d="M320 2480 c20 -13 40 -13 40 0 0 6 -12 10 -27 10 -22 0 -25 -2 -13
-10z"/>
<path d="M624 2438 c-19 -20 -23 -29 -11 -25 25 9 151 -185 143 -219 -6 -23
-5 -22 41 9 45 30 46 32 23 35 -21 2 -38 23 -88 105 -34 56 -66 108 -70 115
-6 9 -16 3 -38 -20z"/>
<path d="M1649 2288 c-18 -38 -21 -52 -11 -56 6 -2 9 -8 6 -14 -4 -7 0 -6 13
0 19 10 47 98 37 114 -11 17 -22 6 -45 -44z"/>
<path d="M0 2300 c0 -17 3 -19 19 -10 32 16 34 30 7 30 -19 0 -26 -5 -26 -20z"/>
<path d="M1050 2260 c0 -5 5 -10 10 -10 6 0 10 5 10 10 0 6 -4 10 -10 10 -5 0
-10 -4 -10 -10z"/>
<path d="M2147 2252 c-19 -21 -22 -58 -6 -67 17 -11 21 2 7 24 -11 18 -10 23
4 38 40 40 101 -35 63 -77 -10 -11 -16 -22 -13 -25 3 -3 11 1 18 10 19 23 47
18 66 -10 32 -49 -24 -103 -64 -63 -6 6 -14 9 -17 6 -10 -9 25 -38 46 -38 28
0 69 44 69 75 0 30 -32 65 -60 65 -13 0 -18 5 -13 16 3 8 0 26 -7 40 -16 30
-69 33 -93 6z"/>
<path d="M1285 2250 c-23 -6 -25 -8 -8 -9 12 0 28 -4 37 -7 11 -4 16 -1 16 10
0 17 0 17 -45 6z"/>
<path d="M1363 2253 c15 -2 39 -2 55 0 15 2 2 4 -28 4 -30 0 -43 -2 -27 -4z"/>
<path d="M977 2229 c4 -13 8 -18 11 -10 2 7 -1 18 -6 23 -8 8 -9 4 -5 -13z"/>
<path d="M1208 2233 c6 -2 18 -2 25 0 6 3 1 5 -13 5 -14 0 -19 -2 -12 -5z"/>
<path d="M1161 2221 c-7 -5 -9 -11 -5 -14 5 -3 15 1 22 9 14 16 5 18 -17 5z"/>
<path d="M900 2210 c0 -5 5 -10 11 -10 5 0 7 5 4 10 -3 6 -8 10 -11 10 -2 0
-4 -4 -4 -10z"/>
<path d="M1090 2195 c-14 -8 -20 -14 -15 -14 6 0 21 6 35 14 14 8 21 14 15 14
-5 0 -21 -6 -35 -14z"/>
<path d="M1308 2203 c6 -2 18 -2 25 0 6 3 1 5 -13 5 -14 0 -19 -2 -12 -5z"/>
<path d="M1473 2203 c9 -2 23 -2 30 0 6 3 -1 5 -18 5 -16 0 -22 -2 -12 -5z"/>
<path d="M1537 2199 c7 -7 15 -10 18 -7 3 3 -2 9 -12 12 -14 6 -15 5 -6 -5z"/>
<path d="M1670 2195 c0 -16 16 -20 24 -6 3 5 -1 11 -9 15 -9 3 -15 0 -15 -9z"/>
<path d="M1225 2190 c-25 -11 1 -11 35 0 20 6 21 8 5 8 -11 0 -29 -3 -40 -8z"/>
<path d="M865 2180 c3 -5 8 -10 11 -10 2 0 4 5 4 10 0 6 -5 10 -11 10 -5 0 -7
-4 -4 -10z"/>
<path d="M956 2171 c-3 -5 1 -11 9 -15 8 -3 15 -1 15 4 0 13 -18 22 -24 11z"/>
<path d="M1160 2170 c-18 -12 -2 -12 25 0 13 6 15 9 5 9 -8 0 -22 -4 -30 -9z"/>
<path d="M1630 2170 c8 -5 20 -10 25 -10 6 0 3 5 -5 10 -8 5 -19 10 -25 10 -5
0 -3 -5 5 -10z"/>
<path d="M1737 2169 c7 -7 15 -10 18 -7 3 3 -2 9 -12 12 -14 6 -15 5 -6 -5z"/>
<path d="M1005 2153 c-43 -23 -102 -69 -163 -127 -56 -53 -126 -136 -104 -122
13 8 42 -9 42 -24 0 -4 -9 -19 -21 -34 -17 -21 -24 -24 -40 -16 -18 10 -18 12
-3 38 15 25 15 26 -1 7 -27 -33 -38 -55 -23 -50 7 3 20 1 28 -5 12 -8 12 -14
-3 -45 -26 -55 -20 -56 11 0 91 164 195 268 357 355 33 17 51 29 41 25 -11 -3
-23 0 -28 7 -6 10 -8 8 -8 -5 0 -9 -12 -23 -27 -30 -16 -6 -58 -33 -95 -60
-39 -28 -73 -45 -79 -41 -8 5 -9 3 -4 -5 9 -16 -34 -63 -52 -57 -7 3 -10 -1
-7 -8 3 -7 -5 -25 -17 -40 -19 -24 -23 -26 -36 -13 -21 21 -8 41 78 120 52 50
76 66 90 62 14 -5 17 -2 13 9 -6 16 39 52 54 43 4 -3 13 3 20 14 14 23 15 22
-23 2z"/>
<path d="M840 2152 c0 -12 19 -26 26 -19 2 2 -2 10 -11 17 -9 8 -15 8 -15 2z"/>
<path d="M1286 2151 c-4 -5 -2 -11 2 -13 5 -1 26 -26 49 -55 30 -39 43 -49 54
-41 10 7 11 11 2 14 -7 3 -29 28 -49 55 -36 49 -48 57 -58 40z"/>
<path d="M1671 2156 c14 -12 90 -46 84 -37 -3 6 -22 18 -42 26 -35 15 -51 19
-42 11z"/>
<path d="M920 2140 c0 -5 5 -10 11 -10 5 0 7 5 4 10 -3 6 -8 10 -11 10 -2 0
-4 -4 -4 -10z"/>
<path d="M1600 2140 c-12 -8 -9 -10 12 -10 28 0 31 -5 41 -70 3 -14 5 -5 6 21
1 60 -22 83 -59 59z"/>
<path d="M1800 2130 c0 -5 5 -10 11 -10 5 0 7 5 4 10 -3 6 -8 10 -11 10 -2 0
-4 -4 -4 -10z"/>
<path d="M410 2120 c0 -5 -15 -20 -32 -31 -31 -20 -31 -20 -7 -15 25 5 31 -2
99 -110 58 -93 69 -118 60 -130 -18 -21 -4 -17 40 12 38 26 55 49 27 38 -17
-6 -45 30 -117 149 -53 87 -70 108 -70 87z"/>
<path d="M1583 2095 c2 -20 37 -35 37 -16 0 6 -6 11 -14 11 -8 0 -17 6 -20 13
-3 6 -5 3 -3 -8z"/>
<path d="M1777 2099 c7 -7 15 -10 18 -7 3 3 -2 9 -12 12 -14 6 -15 5 -6 -5z"/>
<path d="M790 2080 c0 -5 5 -10 11 -10 5 0 7 5 4 10 -3 6 -8 10 -11 10 -2 0
-4 -4 -4 -10z"/>
<path d="M1814 2071 c4 -6 16 -16 28 -22 15 -8 18 -8 14 0 -4 6 -16 16 -28 22
-15 8 -18 8 -14 0z"/>
<path d="M1016 2051 c-24 -26 -17 -65 12 -69 12 -2 22 1 22 7 0 6 -9 11 -21
11 -15 0 -20 5 -17 22 3 25 34 36 52 18 6 -6 13 -42 16 -81 l5 -70 38 32 c20
17 34 35 31 41 -4 5 -15 1 -28 -11 -33 -31 -39 -26 -32 29 6 42 3 53 -14 70
-25 25 -42 25 -64 1z"/>
<path d="M1673 2044 c-33 -35 -28 -48 7 -22 17 12 30 28 30 35 0 19 -12 14
-37 -13z"/>
<path d="M242 2013 l-34 -33 31 6 c17 4 31 3 31 -2 0 -5 30 -56 66 -114 56
-89 64 -108 54 -124 -13 -21 -10 -20 47 14 48 28 53 37 21 36 -17 -1 -37 23
-97 121 -42 67 -78 123 -81 125 -3 2 -20 -12 -38 -29z"/>
<path d="M768 1993 c7 -3 16 -2 19 1 4 3 -2 6 -13 5 -11 0 -14 -3 -6 -6z"/>
<path d="M944 1990 c-7 -7 4 -26 38 -62 26 -29 48 -58 48 -65 0 -10 4 -11 18
-2 16 10 15 14 -14 47 -18 21 -43 50 -56 65 -16 20 -26 25 -34 17z"/>
<path d="M1947 1993 c-12 -11 -8 -21 13 -26 17 -4 18 -2 9 14 -11 21 -13 22
-22 12z"/>
<path d="M1535 1959 c-8 -34 1 -51 15 -29 12 19 13 60 1 60 -5 0 -12 -14 -16
-31z"/>
<path d="M1855 1966 c12 -9 16 -20 12 -35 -5 -19 -3 -20 10 -10 12 11 18 9 34
-11 18 -22 20 -23 17 -5 -2 11 -13 24 -25 30 -12 5 -24 17 -26 27 -3 10 -13
18 -23 18 -17 0 -17 -1 1 -14z"/>
<path d="M2947 1943 c-8 -14 -50 -273 -45 -278 7 -7 98 45 98 56 0 5 -19 0
-41 -12 l-42 -21 7 41 c3 23 11 64 17 92 l11 51 24 -39 23 -38 1 36 c0 37 -43
129 -53 112z"/>
<path d="M1534 1865 c8 -8 18 -15 22 -15 3 0 1 7 -6 15 -7 8 -17 15 -22 15 -5
0 -3 -7 6 -15z"/>
<path d="M1870 1870 c0 -6 7 -10 15 -10 8 0 15 2 15 4 0 2 -7 6 -15 10 -8 3
-15 1 -15 -4z"/>
<path d="M1986 1867 c3 -10 9 -15 12 -12 3 3 0 11 -7 18 -10 9 -11 8 -5 -6z"/>
<path d="M1340 1864 c0 -6 14 -23 30 -39 17 -16 30 -24 30 -19 0 6 -13 23 -30
39 -16 16 -30 24 -30 19z"/>
<path d="M1561 1823 c-7 -8 -10 -17 -7 -20 9 -9 29 13 25 25 -2 6 -10 3 -18
-5z"/>
<path d="M2296 1818 c-3 -13 -6 -51 -6 -86 l0 -63 26 20 c15 12 33 21 40 21
17 0 37 -37 28 -51 -3 -6 6 -3 21 7 19 12 23 20 14 23 -8 2 -19 11 -26 20 -10
13 -9 18 4 28 9 7 14 16 10 19 -4 4 -13 2 -20 -5 -11 -9 -21 -1 -49 39 -33 46
-36 49 -42 28z m38 -103 c-29 -22 -34 -18 -34 23 0 52 10 58 33 22 19 -30 19
-31 1 -45z"/>
<path d="M1130 1810 c0 -5 5 -10 10 -10 6 0 10 5 10 10 0 6 -4 10 -10 10 -5 0
-10 -4 -10 -10z"/>
<path d="M2045 1810 c3 -5 8 -10 11 -10 2 0 4 5 4 10 0 6 -5 10 -11 10 -5 0
-7 -4 -4 -10z"/>
<path d="M1213 1778 c12 -13 24 -19 25 -15 5 11 -18 37 -34 37 -9 0 -5 -8 9
-22z"/>
<path d="M1686 1775 c15 -13 30 -22 32 -20 6 6 -40 44 -52 45 -5 0 4 -11 20
-25z"/>
<path d="M647 1757 c-18 -38 -23 -63 -6 -34 5 9 17 17 24 17 16 0 17 6 6 34
-6 16 -10 14 -24 -17z"/>
<path d="M819 1773 c-8 -9 -9 -14 -3 -10 12 7 74 -61 97 -107 12 -21 15 -22
32 -10 19 14 19 15 -2 29 -12 8 -38 37 -58 65 -40 55 -46 58 -66 33z"/>
<path d="M1481 1725 c-7 -33 -11 -84 -8 -115 3 -38 0 -62 -8 -74 -8 -10 -11
-24 -9 -31 6 -16 -59 -44 -199 -85 -93 -28 -112 -30 -137 -20 -27 11 -32 10
-58 -17 l-29 -29 39 -43 c21 -24 41 -41 45 -37 4 3 -6 19 -20 34 -15 16 -27
32 -27 38 0 5 6 2 13 -7 7 -9 22 -21 35 -28 30 -16 56 2 48 34 -5 19 0 22 67
32 91 14 179 47 222 84 18 16 39 29 48 29 30 0 38 25 17 52 -16 21 -20 44 -22
134 l-3 109 -14 -60z m-371 -335 c12 -8 11 -10 -7 -10 -13 0 -23 5 -23 10 0
13 11 13 30 0z m44 -47 c12 -30 -10 -35 -40 -9 l-29 25 31 1 c21 0 34 -6 38
-17z"/>
<path d="M2061 1764 c0 -11 3 -14 6 -6 3 7 2 16 -1 19 -3 4 -6 -2 -5 -13z"/>
<path d="M1180 1760 c0 -6 7 -10 15 -10 8 0 15 2 15 4 0 2 -7 6 -15 10 -8 3
-15 1 -15 -4z"/>
<path d="M1150 1755 c1 -17 59 -79 67 -72 4 4 -10 24 -30 45 -20 20 -37 32
-37 27z"/>
<path d="M1245 1730 c-10 -11 -13 -20 -8 -20 13 0 38 29 31 35 -3 3 -13 -4
-23 -15z"/>
<path d="M750 1725 c-7 -8 -8 -15 -3 -15 16 0 105 -119 98 -130 -11 -18 11
-11 30 10 14 15 15 20 4 20 -8 0 -32 25 -54 56 -51 72 -59 78 -75 59z"/>
<path d="M1930 1733 c0 -13 63 -83 74 -83 5 0 3 7 -4 15 -6 8 -8 20 -4 27 4 7
3 10 -1 5 -5 -4 -21 5 -37 20 -15 15 -28 22 -28 16z"/>
<path d="M2066 1701 c-3 -5 1 -11 9 -15 8 -3 15 -1 15 4 0 13 -18 22 -24 11z"/>
<path d="M616 1684 c-8 -20 -8 -24 2 -24 4 0 8 9 9 20 2 24 -3 26 -11 4z"/>
<path d="M675 1681 c-3 -12 -14 -21 -23 -22 -11 0 -12 -2 -4 -6 8 -3 11 -17 7
-41 -4 -26 0 -19 14 23 11 32 18 61 16 63 -2 2 -6 -6 -10 -17z"/>
<path d="M1730 1653 c0 -5 12 -16 25 -26 16 -11 23 -13 20 -5 -6 15 -45 42
-45 31z"/>
<path d="M601 1634 c0 -11 3 -14 6 -6 3 7 2 16 -1 19 -3 4 -6 -2 -5 -13z"/>
<path d="M1298 1626 c-10 -23 -20 -30 -39 -28 -4 1 -9 -7 -12 -18 -4 -17 -3
-18 16 -8 12 6 38 14 57 18 29 4 35 10 35 30 0 36 -41 40 -57 6z"/>
<path d="M2075 1640 c-3 -5 -1 -10 4 -10 6 0 11 5 11 10 0 6 -2 10 -4 10 -3 0
-8 -4 -11 -10z"/>
<path d="M1090 1626 c0 -11 72 -77 78 -72 6 7 -57 76 -70 76 -4 0 -8 -2 -8 -4z"/>
<path d="M585 1580 c-4 -17 -5 -34 -2 -36 3 -3 8 9 12 26 4 17 5 34 2 36 -3 3
-8 -9 -12 -26z"/>
<path d="M990 1600 c0 -5 5 -10 11 -10 5 0 7 5 4 10 -3 6 -8 10 -11 10 -2 0
-4 -4 -4 -10z"/>
<path d="M1085 1550 c21 -21 42 -37 46 -34 9 5 -63 74 -77 74 -4 0 9 -18 31
-40z"/>
<path d="M626 1563 c5 -5 12 -12 16 -18 4 -6 8 -2 8 8 0 9 -7 17 -17 17 -9 0
-12 -3 -7 -7z"/>
<path d="M569 1503 c-5 -31 -4 -33 23 -33 27 0 28 -2 28 -45 0 -41 -2 -45 -24
-45 -22 0 -25 5 -29 43 -3 33 -4 29 -4 -18 -1 -33 1 -54 4 -47 2 6 15 12 28
12 23 0 24 -4 28 -72 2 -55 4 -44 5 42 1 63 4 131 6 150 2 19 1 25 -1 13 -7
-36 -51 -32 -55 5 -3 26 -4 26 -9 -5z"/>
<path d="M1917 1514 c-4 -4 -7 -14 -7 -23 0 -11 3 -12 11 -4 6 6 10 16 7 23
-2 6 -7 8 -11 4z"/>
<path d="M1960 1491 c0 -5 7 -11 15 -15 21 -8 19 -44 -2 -49 -15 -4 -15 -5 -2
-6 9 0 22 6 29 14 10 12 9 20 -4 40 -16 25 -36 34 -36 16z"/>
<path d="M195 1445 c-14 -13 -25 -33 -25 -45 0 -17 -6 -20 -47 -20 -42 0 -51
-4 -75 -33 -26 -34 -26 -34 -3 -30 20 4 30 -7 78 -89 86 -147 91 -159 78 -180
-16 -26 -5 -23 53 15 46 29 49 32 26 35 -20 2 -37 24 -87 111 -35 60 -63 111
-63 115 0 3 7 6 15 6 9 0 24 -19 34 -42 58 -133 173 -197 237 -133 23 23 25
32 22 86 l-3 61 53 -4 52 -3 0 43 0 42 -73 0 c-68 0 -75 2 -102 30 -59 61
-130 76 -170 35z m73 -9 c15 -8 36 -23 46 -35 l19 -21 -66 0 c-64 0 -67 1 -67
25 0 13 8 29 18 34 22 13 18 13 50 -3z m63 -126 c47 0 49 -2 64 -36 31 -74 12
-134 -37 -119 -32 10 -96 73 -119 117 -25 49 -24 52 12 44 17 -3 53 -6 80 -6z"/>
<path d="M2233 1440 c-29 -23 -29 -28 8 -70 17 -19 30 -28 29 -20 -4 31 1 40
23 40 31 0 57 -29 57 -63 0 -23 -4 -27 -31 -27 -17 0 -28 -4 -24 -10 19 -32
75 8 75 53 0 57 -73 89 -103 46 -14 -20 -16 -20 -25 -2 -8 13 -7 22 5 35 23
25 11 39 -14 18z"/>
<path d="M2035 1410 c3 -5 8 -10 11 -10 2 0 4 5 4 10 0 6 -5 10 -11 10 -5 0
-7 -4 -4 -10z"/>
<path d="M753 1398 c-6 -7 -13 -21 -16 -30 -4 -10 -17 -18 -29 -18 -13 0 -29
-9 -36 -20 -10 -16 -10 -20 2 -20 16 0 106 -117 106 -137 0 -10 6 -9 26 4 19
12 23 18 13 22 -15 4 -19 9 -69 79 -24 31 -27 42 -16 42 9 0 16 -6 16 -13 0
-22 63 -76 97 -83 40 -8 66 25 57 73 -6 31 -5 33 24 33 23 0 31 5 34 24 5 22
3 23 -44 19 -38 -4 -53 0 -74 16 -30 23 -76 28 -91 9z m58 -18 l24 -19 -37 -1
c-36 0 -50 15 -31 33 10 11 19 8 44 -13z m72 -93 c20 -61 -42 -62 -88 -2 l-27
36 53 -3 c48 -3 53 -6 62 -31z"/>
<path d="M1705 1390 c3 -5 8 -10 11 -10 2 0 4 5 4 10 0 6 -5 10 -11 10 -5 0
-7 -4 -4 -10z"/>
<path d="M563 1270 c0 -36 2 -54 4 -40 3 13 12 29 21 36 14 10 14 12 0 20 -9
5 -18 18 -21 29 -2 11 -5 -9 -4 -45z"/>
<path d="M970 1320 c0 -5 5 -10 11 -10 5 0 7 5 4 10 -3 6 -8 10 -11 10 -2 0
-4 -4 -4 -10z"/>
<path d="M1488 1313 c7 -3 16 -2 19 1 4 3 -2 6 -13 5 -11 0 -14 -3 -6 -6z"/>
<path d="M2793 1294 c-7 -12 -29 -29 -48 -38 -34 -16 -35 -19 -22 -39 7 -12
29 -48 48 -79 18 -32 37 -58 41 -58 11 0 10 12 -1 29 -6 9 -6 23 1 35 25 47
59 47 104 2 29 -29 34 -41 34 -79 0 -57 -15 -70 -70 -61 -34 6 -42 4 -38 -7 7
-22 69 -22 105 0 37 23 48 55 38 108 -15 84 -113 124 -165 68 -13 -14 -27 -25
-31 -25 -15 0 -43 64 -30 68 32 11 53 39 49 67 -3 29 -4 29 -15 9z"/>
<path d="M1780 1295 c0 -16 23 -46 43 -56 l22 -12 -20 24 c-34 40 -45 51 -45
44z"/>
<path d="M1833 1289 c9 -5 17 -20 17 -32 0 -17 2 -19 9 -8 13 20 -5 51 -27 51
-16 -1 -16 -1 1 -11z"/>
<path d="M1345 1260 c10 -11 20 -20 22 -20 2 0 -1 9 -7 20 -6 11 -16 20 -22
20 -6 0 -3 -9 7 -20z"/>
<path d="M1300 1263 c0 -13 29 -38 35 -31 3 3 -4 13 -15 23 -11 10 -20 13 -20
8z"/>
<path d="M1620 1215 c-7 -8 -8 -15 -2 -15 5 0 15 7 22 15 7 8 8 15 2 15 -5 0
-15 -7 -22 -15z"/>
<path d="M631 1201 c-1 -20 -5 -23 -31 -19 -25 4 -30 1 -29 -16 0 -12 3 -15 6
-8 7 17 63 16 63 -2 0 -7 3 -27 6 -44 5 -24 2 -31 -12 -35 -16 -4 -15 -5 3 -6
29 -1 56 -77 32 -92 -29 -18 -37 -7 -60 76 -13 47 -25 81 -27 75 -7 -19 49
-182 89 -264 172 -344 495 -582 897 -663 133 -26 405 -24 539 5 261 56 491
173 698 352 84 73 195 193 195 210 0 5 -8 14 -17 19 -57 33 -57 35 -17 95 62
93 34 71 -46 -36 -190 -256 -480 -452 -777 -527 -143 -36 -225 -44 -385 -38
-126 4 -174 10 -270 35 -334 86 -608 301 -752 591 -48 95 -69 154 -90 251 -8
36 -14 54 -15 41z m83 -273 c14 -36 14 -38 -4 -48 -28 -15 -29 -14 -50 32
l-19 43 22 12 c26 14 30 10 51 -39z m75 -131 c54 -82 58 -107 19 -115 -22 -4
-59 57 -47 79 7 14 4 18 -13 21 -12 2 -31 18 -42 37 -19 33 -19 34 -1 47 10 8
21 14 24 14 3 -1 30 -38 60 -83z m2170 -11 l23 -25 -47 -50 -47 -51 -29 21
c-16 11 -29 23 -29 27 0 14 82 102 94 102 7 0 23 -11 35 -24z m-2059 -180
l-21 -21 -35 40 -35 40 23 18 c22 19 23 19 56 -18 l34 -37 -22 -22z m1950 69
l24 -25 -49 -50 c-27 -28 -52 -50 -55 -50 -4 0 -16 14 -29 30 l-22 31 48 44
c26 24 51 44 54 45 3 0 16 -11 29 -25z m-1881 -95 c22 -19 32 -34 28 -45 -12
-30 -37 -29 -73 6 -32 31 -33 34 -17 51 21 23 21 23 62 -12z m1776 -46 c-6 -9
-29 -30 -52 -47 -36 -26 -45 -28 -58 -17 -39 33 -37 46 18 89 l52 40 25 -24
c19 -19 22 -29 15 -41z m-1662 -80 c-8 -13 -18 -24 -22 -24 -3 0 -24 16 -46
34 -39 34 -40 34 -21 55 l19 20 43 -31 c41 -30 42 -31 27 -54z m1544 -8 c-2
-5 -24 -21 -50 -35 -39 -22 -49 -24 -66 -13 -29 17 -31 16 -31 -16 0 -23 -8
-32 -45 -50 -25 -12 -49 -22 -54 -22 -8 0 -34 60 -29 66 2 1 38 21 81 43 43
23 95 53 115 66 l37 26 22 -28 c13 -15 22 -32 20 -37z m-1479 0 c21 -13 66
-38 100 -55 59 -30 61 -32 50 -56 -13 -30 -17 -30 -63 -8 -25 12 -35 23 -35
40 0 23 -23 32 -35 13 -7 -12 -85 28 -85 42 0 12 19 48 26 48 2 0 21 -11 42
-24z m1202 -107 c15 -36 11 -41 -54 -63 -54 -17 -61 -15 -71 25 -6 24 -2 27
47 47 68 27 63 27 78 -9z m-937 -44 c-1 -15 -4 -29 -6 -31 -5 -6 -96 26 -102
36 -3 5 -1 20 4 33 l10 25 48 -18 c42 -16 48 -22 46 -45z m802 -6 c4 -17 4
-33 1 -36 -9 -10 -116 -31 -120 -25 -2 4 -6 20 -7 36 -4 28 -1 31 41 42 70 19
78 17 85 -17z m-712 10 c29 -8 37 -15 37 -34 0 -13 -5 -27 -10 -30 -12 -8
-110 14 -110 23 0 4 3 17 6 30 7 25 21 27 77 11z m155 -29 c7 0 12 -13 12 -30
0 -26 -3 -30 -29 -30 -56 0 -91 12 -91 30 0 41 9 48 53 39 23 -4 48 -8 55 -9z
m417 -11 c4 -17 4 -33 1 -36 -3 -3 -29 -10 -58 -14 -56 -9 -68 -3 -68 38 0 18
7 23 38 28 20 4 42 8 47 10 25 9 34 3 40 -26z m-135 -26 l0 -33 -54 0 c-46 0
-56 3 -61 20 -3 11 -10 20 -15 20 -5 0 -12 -9 -15 -20 -5 -17 -15 -20 -61 -20
-53 0 -54 1 -54 28 0 16 2 31 5 33 2 3 61 5 130 5 l125 0 0 -33z"/>
<path d="M1471 1196 c-1 -12 -6 -16 -16 -12 -8 3 -15 3 -15 1 0 -10 41 -45 52
-45 6 0 4 6 -7 13 -13 10 -15 16 -6 21 6 4 19 2 27 -5 12 -10 13 -9 8 5 -3 9
-12 16 -19 16 -7 0 -16 6 -18 13 -3 7 -6 4 -6 -7z"/>
<path d="M1880 1200 c0 -5 4 -10 9 -10 6 0 13 5 16 10 3 6 -1 10 -9 10 -9 0
-16 -4 -16 -10z"/>
<path d="M1660 1185 c0 -15 18 -40 24 -34 3 3 -1 14 -9 25 -8 10 -14 15 -15 9z"/>
<path d="M1131 1132 c-7 -14 -6 -25 5 -40 18 -26 46 -28 65 -6 11 14 14 13 25
-8 10 -17 13 -19 14 -6 0 9 -12 30 -26 47 -29 35 -68 41 -83 13z m59 -7 c13
-16 7 -45 -9 -45 -14 0 -41 30 -41 46 0 18 34 18 50 -1z"/>
<path d="M1976 1142 c-2 -4 4 -8 15 -8 10 0 19 4 19 8 0 10 -27 10 -34 0z"/>
<path d="M1755 1120 c-3 -6 1 -7 9 -4 18 7 21 14 7 14 -6 0 -13 -4 -16 -10z"/>
<path d="M1961 1088 c-1 -29 6 -44 33 -72 37 -40 65 -45 89 -18 21 23 21 41 1
70 -18 26 -71 31 -80 7 -10 -24 -23 -17 -33 18 l-9 32 -1 -37z m99 -28 c23
-23 25 -41 8 -58 -25 -25 -81 36 -57 64 15 19 25 18 49 -6z"/>
<path d="M1665 1100 c-3 -5 1 -10 9 -10 9 0 16 5 16 10 0 6 -4 10 -9 10 -6 0
-13 -4 -16 -10z"/>
<path d="M1091 1039 c12 -23 15 -23 22 -5 3 8 -2 16 -14 19 -16 4 -17 2 -8
-14z"/>
<path d="M1198 1033 c7 -3 16 -2 19 1 4 3 -2 6 -13 5 -11 0 -14 -3 -6 -6z"/>
<path d="M1363 1003 c-19 -7 -15 -50 6 -65 10 -7 21 -23 25 -35 13 -40 86 -20
86 22 0 17 -27 45 -45 45 -7 0 -15 9 -18 20 -5 19 -27 25 -54 13z m45 -24 c4
-19 -27 -34 -41 -20 -14 14 0 43 20 39 10 -2 19 -10 21 -19z m52 -69 c-14 -27
-39 -25 -49 3 -10 26 13 40 42 25 14 -7 15 -13 7 -28z"/>
<path d="M1673 986 c-15 -13 -25 -27 -21 -31 3 -4 16 3 27 14 12 12 26 21 31
21 6 0 10 5 10 10 0 17 -17 11 -47 -14z"/>
<path d="M1720 976 c0 -18 24 -102 31 -110 19 -21 18 3 -2 55 -20 53 -29 70
-29 55z"/>
<path d="M1245 940 c21 -16 41 -30 46 -30 4 0 14 -6 21 -14 8 -7 25 -16 38
-20 14 -4 -1 8 -32 27 -31 18 -66 41 -76 50 -10 9 -22 17 -27 17 -4 0 9 -13
30 -30z"/>
<path d="M811 934 c-24 -30 -24 -34 -12 -67 23 -61 84 -77 120 -31 20 25 20
25 31 4 6 -12 10 -33 8 -48 -2 -22 -9 -28 -35 -30 -38 -4 -45 -22 -8 -22 14 0
34 9 46 21 54 54 -27 199 -110 199 -11 0 -29 -12 -40 -26z m83 -10 c25 -25 31
-63 12 -82 -15 -15 -19 -15 -44 -2 -29 17 -49 58 -39 84 8 20 51 21 71 0z"/>
<path d="M1185 940 c10 -11 20 -20 23 -20 3 0 -3 9 -13 20 -10 11 -20 20 -23
20 -3 0 3 -9 13 -20z"/>
<path d="M1230 907 c0 -3 12 -12 26 -22 15 -9 23 -12 20 -6 -7 11 -46 35 -46
28z"/>
<path d="M1960 870 c-9 -6 -10 -10 -3 -10 6 0 15 5 18 10 8 12 4 12 -15 0z"/>
<path d="M1294 861 c9 -14 156 -73 169 -68 7 2 -7 10 -30 16 -26 7 -43 18 -43
27 0 10 -7 13 -24 8 -14 -3 -29 0 -39 10 -17 17 -42 22 -33 7z"/>
<path d="M1390 860 c8 -5 20 -10 25 -10 6 0 3 5 -5 10 -8 5 -19 10 -25 10 -5
0 -3 -5 5 -10z"/>
<path d="M3 800 c1 -36 7 -69 13 -75 7 -5 20 -35 29 -65 10 -30 20 -60 22 -67
3 -6 -13 -21 -34 -33 -34 -19 -26 -20 26 -4 16 5 25 -7 56 -72 20 -44 56 -113
80 -155 25 -42 45 -79 45 -82 0 -10 -73 -56 -81 -51 -4 2 -24 31 -44 64 l-36
60 20 29 c12 16 21 32 21 35 0 3 -17 6 -39 6 -36 0 -39 2 -57 48 -11 30 -20
41 -22 29 -8 -40 245 -467 277 -467 5 0 14 7 21 15 7 9 26 25 41 36 l28 20 35
-38 c60 -65 48 -31 -16 47 -165 202 -299 460 -367 710 l-20 75 2 -65z m301
-638 c25 -34 46 -66 46 -71 0 -11 -58 -61 -71 -61 -9 0 -109 129 -109 141 0 8
73 58 82 56 3 -1 27 -30 52 -65z"/>
<path d="M1880 845 c-27 -11 -30 -14 -10 -12 14 2 34 8 45 15 27 15 8 14 -35
-3z"/>
<path d="M1440 840 c8 -5 24 -9 35 -9 l20 0 -20 9 c-11 5 -27 9 -35 9 -13 1
-13 0 0 -9z"/>
<path d="M1500 826 c0 -9 30 -14 35 -6 4 6 -3 10 -14 10 -12 0 -21 -2 -21 -4z"/>
<path d="M1808 823 c7 -3 16 -2 19 1 4 3 -2 6 -13 5 -11 0 -14 -3 -6 -6z"/>
<path d="M1728 813 c12 -2 30 -2 40 0 9 3 -1 5 -23 4 -22 0 -30 -2 -17 -4z"/>
<path d="M2268 795 c-67 -37 -54 -157 26 -240 35 -38 49 -45 80 -45 26 0 44 7
63 26 22 22 25 32 20 72 -9 86 -97 123 -154 66 -14 -14 -29 -22 -33 -17 -14
16 -31 80 -24 97 10 26 41 39 63 26 24 -12 42 7 20 21 -19 12 -29 11 -61 -6z
m127 -141 c13 -14 27 -38 30 -54 15 -70 -51 -96 -99 -39 -63 75 3 164 69 93z"/>
<path d="M242 663 c-35 -17 -62 -58 -62 -94 0 -43 24 -101 53 -125 41 -34 118
-34 152 1 14 13 25 29 25 35 0 5 4 10 9 10 13 0 41 -75 41 -110 0 -39 -34 -74
-63 -65 -39 13 -72 11 -72 -4 0 -51 103 -30 143 29 21 30 23 43 18 89 -12 103
-71 200 -140 232 -50 23 -62 23 -104 2z m108 -41 c59 -59 61 -154 4 -168 -75
-19 -153 103 -114 177 17 30 75 26 110 -9z"/>
<path d="M1188 664 c-15 -8 -31 -26 -34 -41 -9 -34 14 -77 44 -81 18 -3 22
-10 22 -36 0 -64 51 -91 107 -57 61 38 52 116 -15 136 -24 7 -32 15 -32 32 0
25 -32 63 -52 63 -7 -1 -25 -7 -40 -16z m56 -20 c26 -26 20 -61 -11 -67 -37
-7 -63 9 -63 38 0 39 46 58 74 29z m91 -107 c40 -30 -11 -92 -60 -73 -20 7
-39 51 -32 70 8 20 66 21 92 3z"/>
<path d="M1735 594 c-49 -33 -65 -52 -58 -70 7 -18 23 -18 23 0 0 15 78 71 87
62 3 -3 12 -56 20 -118 15 -116 24 -141 44 -121 9 9 5 36 -14 105 -15 51 -29
110 -33 131 -7 44 -17 45 -69 11z"/>
<path d="M2705 141 c-40 -24 -60 -49 -74 -90 -15 -46 -14 -51 9 -51 17 0 20 7
20 40 0 71 66 113 116 75 28 -21 54 -19 54 5 0 40 -73 53 -125 21z"/>
<path d="M815 106 c-37 -16 -53 -35 -65 -75 -7 -27 -6 -31 11 -31 12 0 19 7
19 19 0 35 38 71 76 71 40 0 84 -37 84 -70 0 -13 7 -20 19 -20 17 0 18 4 11
36 -17 75 -79 103 -155 70z"/>
</g>
</svg>
